<?xml version="1.0" encoding="utf-8" standalone="no"?>
<!DOCTYPE svg PUBLIC "-//W3C//DTD SVG 1.1//EN" "http://www.w3.org/Graphics/SVG/1.1/DTD/svg11.dtd">
<svg version="1.1" class="svg-plot" xmlns="http://www.w3.org/2000/svg" width="658.28pt" height="375pt" viewBox="-41.2 -15 329.14 187.5" preserveAspectRatio="xMidYMid"><rect x="-31.2" y="-5" width="309.14" height="167.5" class="svg-plot-bg"/><rect x="0" y="0" width="240" height="130" class="svg-plot-axis"/><line x1="120" x2="120" y1="0" y2="130" class="svg-plot-major"/><line x1="0" x2="0" y1="0" y2="130" class="svg-plot-minor"/><line x1="240" x2="240" y1="0" y2="130" class="svg-plot-minor"/><line x1="0" x2="240" y1="18.185" y2="18.185" class="svg-plot-major"/><line x1="0" x2="240" y1="36.37" y2="36.37" class="svg-plot-minor"/><line x1="0" x2="240" y1="0" y2="0" class="svg-plot-minor"/><clipPath id="clip0"><rect x="-0.75" y="-0.75" width="241.5" height="131.5"/></clipPath><g clip-path="url(#clip0)"><path class="svg-plot-line svg-plot-s4 svg-plot-d4" d="M 0 104.54 2.4 97.48 4.8 90.83 7.2 84.57 9.6 78.7 12 73.19 14.4 68.03 16.8 63.2 19.2 58.69 21.6 54.49 24 50.58 26.4 46.94 28.8 43.57 31.2 40.45 33.6 37.57 36 34.91 38.4 32.47 40.8 30.23 43.2 28.19 45.6 26.32 48 24.62 50.4 23.09 52.8 21.7 55.2 20.45 57.6 19.34 60 18.34 62.4 17.46 64.8 16.68 67.2 16.01 69.6 15.42 72 14.91 74.4 14.48 76.8 14.12 79.2 13.83 81.6 13.59 84 13.4 86.4 13.26 88.8 13.17 91.2 13.11 93.6 13.08 96 13.09 98.4 13.12 100.8 13.17 105.6 13.34 110.4 13.57 115.2 13.86 120 14.2 124.8 14.58 129.6 15.01 134.4 15.5 136.8 15.77 139.2 16.06 141.6 16.38 144 16.72 146.4 17.1 148.8 17.5 151.2 17.95 153.6 18.44 156 18.97 158.4 19.56 160.8 20.21 163.2 20.92 165.6 21.7 168 22.55 170.4 23.49 172.8 24.52 175.2 25.65 177.6 26.88 180 28.23 182.4 29.7 184.8 31.3 187.2 33.04 189.6 34.94 192 36.99 194.4 39.21 196.8 41.62 199.2 44.21 201.6 47.01 204 50.03 206.4 53.27 208.8 56.75 211.2 60.49 213.6 64.48 216 68.76 218.4 73.33 220.8 78.2 223.2 83.4 225.6 88.93 228 94.8 230.4 101.05 232.8 107.67 235.2 114.7 237.6 122.13 240 130"/><path class="svg-plot-line svg-plot-s3 svg-plot-d3" d="M 0 31.14 4.8 29.58 9.6 28.08 14.4 26.65 19.2 25.28 24 23.97 28.8 22.74 33.6 21.57 38.4 20.47 43.2 19.44 48 18.49 52.8 17.61 57.6 16.81 62.4 16.08 67.2 15.43 69.6 15.14 72 14.87 74.4 14.61 76.8 14.38 79.2 14.17 81.6 13.98 84 13.81 86.4 13.66 88.8 13.53 91.2 13.42 93.6 13.34 96 13.28 98.4 13.24 100.8 13.22 103.2 13.23 105.6 13.25 108 13.3 110.4 13.38 112.8 13.47 115.2 13.59 117.6 13.74 120 13.9 122.4 14.09 124.8 14.31 127.2 14.55 129.6 14.81 132 15.1 134.4 15.41 136.8 15.75 139.2 16.12 141.6 16.51 144 16.92 146.4 17.36 148.8 17.82 151.2 18.32 153.6 18.83 156 19.38 158.4 19.95 160.8 20.55 163.2 21.17 165.6 21.82 168 22.5 170.4 23.21 172.8 23.94 175.2 24.7 177.6 25.49 180 26.31 182.4 27.16 184.8 28.03 187.2 28.93 189.6 29.87 192 30.83 194.4 31.82 196.8 32.84 199.2 33.89 201.6 34.97 204 36.07 206.4 37.21 208.8 38.38 211.2 39.58 213.6 40.81 216 42.07 218.4 43.37 220.8 44.69 223.2 46.04 225.6 47.43 228 48.85 230.4 50.3 232.8 51.78 235.2 53.29 237.6 54.84 240 56.42"/><path class="svg-plot-line svg-plot-s2 svg-plot-d2" d="M 0 34.33 2.4 33.33 4.8 32.36 7.2 31.42 9.6 30.49 12 29.6 14.4 28.72 16.8 27.87 19.2 27.04 21.6 26.24 24 25.46 26.4 24.71 28.8 23.98 31.2 23.27 33.6 22.58 36 21.93 38.4 21.29 40.8 20.68 43.2 20.09 45.6 19.53 48 18.99 50.4 18.47 52.8 17.98 55.2 17.51 57.6 17.07 60 16.65 62.4 16.25 64.8 15.88 67.2 15.53 69.6 15.2 72 14.9 74.4 14.62 76.8 14.37 79.2 14.14 81.6 13.94 84 13.76 86.4 13.6 88.8 13.46 91.2 13.35 93.6 13.27 96 13.21 98.4 13.17 100.8 13.16 103.2 13.17 105.6 13.2 108 13.26 110.4 13.34 112.8 13.44 115.2 13.57 117.6 13.73 120 13.9 122.4 14.1 124.8 14.33 127.2 14.58 129.6 14.85 132 15.15 134.4 15.47 136.8 15.81 139.2 16.18 141.6 16.57 144 16.99 146.4 17.43 148.8 17.89 151.2 18.38 153.6 18.89 156 19.43 158.4 19.99 160.8 20.57 163.2 21.18 165.6 21.81 168 22.47 170.4 23.15 172.8 23.85 175.2 24.58 177.6 25.33 180 26.1 182.4 26.9 184.8 27.72 187.2 28.57 189.6 29.44 192 30.33 194.4 31.25 196.8 32.19 199.2 33.16 201.6 34.15 204 35.16 206.4 36.2 208.8 37.26 211.2 38.35 213.6 39.46 216 40.59 218.4 41.75 220.8 42.93 223.2 44.13 225.6 45.36 228 46.62 230.4 47.89 232.8 49.19 235.2 50.52 237.6 51.87 240 53.24"/><path class="svg-plot-line svg-plot-s1 svg-plot-d1" d="M 0 6.84 240 25.75"/><path class="svg-plot-fill svg-plot-f0 svg-plot-h0" d=""/><path class="svg-plot-line svg-plot-s0 svg-plot-d0" d=""/></g><g><line x1="120" x2="120" y1="130" y2="134" class="svg-plot-tick"/><line x1="0" x2="0" y1="130" y2="134" class="svg-plot-tick"/><line x1="240" x2="240" y1="130" y2="134" class="svg-plot-tick"/><line x1="0" x2="-4" y1="18.185" y2="18.185" class="svg-plot-tick"/><line x1="0" x2="-4" y1="36.37" y2="36.37" class="svg-plot-tick"/><line x1="0" x2="-4" y1="0" y2="0" class="svg-plot-tick"/><text class="svg-plot-label svg-plot-t" x="0" y="0" transform="rotate(-90) translate(-64 -26.2)">y</text><text class="svg-plot-value" style="text-anchor:end" x="-9" y="-1">5</text><text class="svg-plot-value" style="text-anchor:end" x="-9" y="35.37">-5</text><text class="svg-plot-value" style="text-anchor:end" x="-9" y="17.185">0</text><text class="svg-plot-label svg-plot-t" x="120" y="156.5">x</text><text class="svg-plot-value" x="240" y="143">5</text><text class="svg-plot-value" x="0" y="143">-5</text><text class="svg-plot-value" x="120" y="143">0</text><text class="svg-plot-label svg-plot-t4" style="text-anchor:start" x="241.75" y="129.3">4-th power</text><text class="svg-plot-label svg-plot-t3" style="text-anchor:start" x="241.75" y="55.7168">3-th power</text><text class="svg-plot-label svg-plot-t2" style="text-anchor:start" x="241.75" y="52.5395">2-th power</text><text class="svg-plot-label svg-plot-t1" style="text-anchor:start" x="241.75" y="25.0499">1-th power</text><use href="#svg-plot-marker0" class="svg-plot-f0 svg-plot-s0" transform="translate(72 14.9117)"/><use href="#svg-plot-marker0" class="svg-plot-f0 svg-plot-s0" transform="translate(96 13.0932)"/><use href="#svg-plot-marker0" class="svg-plot-f0 svg-plot-s0" transform="translate(120 14.1843)"/><use href="#svg-plot-marker0" class="svg-plot-f0 svg-plot-s0" transform="translate(144 16.7302)"/><use href="#svg-plot-marker0" class="svg-plot-f0 svg-plot-s0" transform="translate(168 22.5494)"/><text class="svg-plot-label svg-plot-t0" style="text-anchor:start" x="121.75" y="17.485">initial points</text></g><defs><g id="svg-plot-marker0" class="svg-plot-marker"><circle cx="0" cy="0" r="1" stroke="none"/></g><g id="svg-plot-marker1" class="svg-plot-marker"><path d="M0 0.9 -0.9 0 0 -0.9 0.9 0Z" fill="#FFFA" stroke-linejoin="miter" stroke-width="0.5"/></g><g id="svg-plot-marker2" class="svg-plot-marker"><path fill="none" d="M0 -1.2 0 1.2 M -1.2 0 1.2 0" stroke-width="0.6"/></g><g id="svg-plot-marker3" class="svg-plot-marker"><circle cx="0" cy="0" fill="#FFFA" r="0.82" stroke-width="0.55"/></g><g id="svg-plot-marker4" class="svg-plot-marker"><path stroke="none" d="M0 -1.25 1.25 0.9 -1.25 0.9Z"/></g><mask id="svg-plot-hatch1"><rect x="-394" y="-394" width="788" height="788" fill="url(#svg-plot-hatch1-pattern)" style="transform:rotate(-50deg)"/></mask><pattern patternUnits="userSpaceOnUse" id="svg-plot-hatch1-pattern" class="svg-plot-hatch" x="0" y="0" width="10" height="3"><line x1="-1" x2="11" y1="1.5" y2="1.5" stroke="#FFF" fill="none"/><rect x="-1" y="-1" width="12" height="12" fill="#FFF2" stroke="none"/></pattern><mask id="svg-plot-hatch2"><rect x="-394" y="-394" width="788" height="788" fill="url(#svg-plot-hatch2-pattern)" style="transform:rotate(30deg)"/></mask><pattern patternUnits="userSpaceOnUse" id="svg-plot-hatch2-pattern" class="svg-plot-hatch" x="0" y="0" width="10" height="2.4"><line x1="-1" x2="11" y1="1.2" y2="1.2" stroke="#FFF" fill="none"/><rect x="-1" y="-1" width="12" height="12" fill="#FFF2" stroke="none"/></pattern><mask id="svg-plot-hatch3"><rect x="-394" y="-394" width="788" height="788" fill="url(#svg-plot-hatch3-pattern)" style="transform:rotate(8deg)"/><rect x="-394" y="-394" width="788" height="788" fill="url(#svg-plot-hatch3-pattern)" style="transform:rotate(93deg)"/></mask><pattern patternUnits="userSpaceOnUse" id="svg-plot-hatch3-pattern" class="svg-plot-hatch" x="0" y="0" width="10" height="3"><line x1="-1" x2="11" y1="1.5" y2="1.5" stroke="#FFF" fill="none"/><rect x="-1" y="-1" width="12" height="12" fill="#FFF2" stroke="none"/></pattern></defs><style>.svg-plot{stroke-linecap:butt;stroke-linejoin:round;}.svg-plot-bg{fill:none;stroke:none;}.svg-plot-axis{stroke:none;fill:#FFFFFFD9;}.svg-plot-legend{stroke:none;fill:#FFFFFFE4;}.svg-plot-line{stroke:blue;fill:none;stroke-width:1.5px;stroke-linejoin:round;}.svg-plot-fill{stroke:none;opacity:0.28;}.svg-plot-major{stroke:#000;stroke-width:1px;stroke-linecap:square;fill:none;}.svg-plot-minor{stroke:#0000004D;stroke-width:0.5px;stroke-dasharray:0.5 1.5;stroke-linecap:round;fill:none;}.svg-plot-tick{stroke:#000;fill:none;stroke-width:1px;stroke-linecap:butt;}.svg-plot-value,.svg-plot-label{font-family:Arial,sans-serif;fill:#000;stroke:#FFFFFF48;stroke-width:2.5px;paint-order:stroke fill;text-anchor:middle;dominant-baseline:central;alignment-baseline:baseline;}.svg-plot-label{font-size:7px;}.svg-plot-value{font-size:10px;}.svg-plot-hatch{stroke:#FFF;stroke-width:1px;}.svg-plot-marker{transform:scale(2.5);}.svg-plot-s{stroke:#000;}.svg-plot-f,.svg-plot-t{fill:#000;}.svg-plot-s0{stroke:#0073E6}.svg-plot-f0,.svg-plot-t0{fill:#0073E6}.svg-plot-s1{stroke:#CC0000}.svg-plot-f1,.svg-plot-t1{fill:#CC0000}.svg-plot-s2{stroke:#00B300}.svg-plot-f2,.svg-plot-t2{fill:#00B300}.svg-plot-s3{stroke:#806600}.svg-plot-f3,.svg-plot-t3{fill:#806600}.svg-plot-s4{stroke:#E69900}.svg-plot-f4,.svg-plot-t4{fill:#E69900}.svg-plot-s5{stroke:#CC00CC}.svg-plot-f5,.svg-plot-t5{fill:#CC00CC}.svg-plot-d0{stroke-width:1.35px}.svg-plot-d1{stroke-dasharray:1.8 1.8}.svg-plot-d2{stroke-dasharray:4.2 2.4}.svg-plot-d3{stroke-dasharray:7.5 6}.svg-plot-d4{stroke-dasharray:6 1.5 1.5 1.5 1.5 1.5}.svg-plot-d5{stroke-dasharray:15 4.5}.svg-plot-d6{stroke-dasharray:6 3 1.5 3}.svg-plot-h0{opacity:0.14}.svg-plot-h1{mask:url(#svg-plot-hatch1)}.svg-plot-h2{mask:url(#svg-plot-hatch2)}.svg-plot-h3{mask:url(#svg-plot-hatch3)}#svg-plot-hatch2-pattern{stroke-width:0.9px}#svg-plot-hatch3-pattern{stroke-width:0.7px}</style></svg>